<?xml version="1.0" encoding="UTF-8" standalone="no"?>
<!-- Created with Inkscape (http://www.inkscape.org/) -->

<svg
   xmlns:dc="http://purl.org/dc/elements/1.1/"
   xmlns:cc="http://creativecommons.org/ns#"
   xmlns:rdf="http://www.w3.org/1999/02/22-rdf-syntax-ns#"
   xmlns:svg="http://www.w3.org/2000/svg"
   xmlns="http://www.w3.org/2000/svg"
   xmlns:sodipodi="http://sodipodi.sourceforge.net/DTD/sodipodi-0.dtd"
   xmlns:inkscape="http://www.inkscape.org/namespaces/inkscape"
   width="210mm"
   height="297mm"
   viewBox="0 0 210 297"
   version="1.1"
   id="svg8"
   inkscape:version="0.92.1 r15371"
   sodipodi:docname="caras.svg">
  <defs
     id="defs2" />
  <sodipodi:namedview
     id="base"
     pagecolor="#ffffff"
     bordercolor="#666666"
     borderopacity="1.0"
     inkscape:pageopacity="0.0"
     inkscape:pageshadow="2"
     inkscape:zoom="2.8"
     inkscape:cx="188.27929"
     inkscape:cy="974.56964"
     inkscape:document-units="mm"
     inkscape:current-layer="layer1"
     showgrid="false"
     inkscape:snap-global="false"
     inkscape:window-width="1920"
     inkscape:window-height="1027"
     inkscape:window-x="1272"
     inkscape:window-y="-8"
     inkscape:window-maximized="1" />
  <metadata
     id="metadata5">
    <rdf:RDF>
      <cc:Work
         rdf:about="">
        <dc:format>image/svg+xml</dc:format>
        <dc:type
           rdf:resource="http://purl.org/dc/dcmitype/StillImage" />
        <dc:title></dc:title>
      </cc:Work>
    </rdf:RDF>
  </metadata>
  <g
     inkscape:label="Layer 1"
     inkscape:groupmode="layer"
     id="layer1">
    <g
       id="g4670"
       transform="matrix(1,0,0,1.027457,-56.39387,-73.190624)"
       inkscape:export-xdpi="38.171982"
       inkscape:export-ydpi="38.171982">
      <g
         id="g4559">
        <path
           style="color:#000000;font-style:normal;font-variant:normal;font-weight:normal;font-stretch:normal;font-size:medium;line-height:normal;font-family:sans-serif;font-variant-ligatures:normal;font-variant-position:normal;font-variant-caps:normal;font-variant-numeric:normal;font-variant-alternates:normal;font-feature-settings:normal;text-indent:0;text-align:start;text-decoration:none;text-decoration-line:none;text-decoration-style:solid;text-decoration-color:#000000;letter-spacing:normal;word-spacing:normal;text-transform:none;writing-mode:lr-tb;direction:ltr;text-orientation:mixed;dominant-baseline:auto;baseline-shift:baseline;text-anchor:start;white-space:normal;shape-padding:0;clip-rule:nonzero;display:inline;overflow:visible;visibility:visible;opacity:1;isolation:auto;mix-blend-mode:normal;color-interpolation:sRGB;color-interpolation-filters:linearRGB;solid-color:#000000;solid-opacity:1;vector-effect:none;fill:#000000;fill-opacity:1;fill-rule:evenodd;stroke:none;stroke-width:2.13543296;stroke-linecap:butt;stroke-linejoin:miter;stroke-miterlimit:4;stroke-dasharray:none;stroke-dashoffset:0;stroke-opacity:1;color-rendering:auto;image-rendering:auto;shape-rendering:auto;text-rendering:auto;enable-background:accumulate"
           d="m 297.49609,288.54883 c -1.55925,0.015 -3.1185,0.076 -4.67187,0.17969 -6.21349,0.41475 -12.33712,1.5384 -18.01953,3.32812 -11.36482,3.57942 -21.01141,9.84267 -25.96094,18.66211 -5.42176,9.66088 -4.76108,14.13527 -4.29687,20.52148 0.22411,3.08316 0.38961,6.70217 -0.19922,11.77149 l -4.33985,0.63672 c -2.24076,0.32791 -3.71608,1.54082 -4.31054,3.04297 -0.59447,1.50214 -0.4355,3.1294 -0.11133,4.56054 l 3.29297,14.51563 -0.12696,0.39648 0.52539,0.46485 c 14.18341,12.41799 29.11459,21.89875 45.69336,24.35351 16.46751,2.43825 34.47395,-2.18052 54.625,-17.42187 l 14.09375,1.82422 2.17578,-11.59766 c 0.44765,-2.39078 -0.14076,-4.22163 -1.44531,-5.14453 -1.30455,-0.92291 -2.93258,-0.91892 -4.41406,-0.67969 l -6.26758,1.01172 4.53906,-18.30859 c 3.76862,-15.18994 0.65365,-27.04122 -6.51757,-35.48438 -7.17123,-8.44315 -18.27284,-13.47973 -30.36915,-15.54492 -4.53611,-0.77445 -9.21676,-1.13286 -13.89453,-1.08789 z"
           transform="scale(0.26458333)"
           id="path4549"
           inkscape:connector-curvature="0" />
        <path
           style="color:#000000;font-style:normal;font-variant:normal;font-weight:normal;font-stretch:normal;font-size:medium;line-height:normal;font-family:sans-serif;font-variant-ligatures:normal;font-variant-position:normal;font-variant-caps:normal;font-variant-numeric:normal;font-variant-alternates:normal;font-feature-settings:normal;text-indent:0;text-align:start;text-decoration:none;text-decoration-line:none;text-decoration-style:solid;text-decoration-color:#000000;letter-spacing:normal;word-spacing:normal;text-transform:none;writing-mode:lr-tb;direction:ltr;text-orientation:mixed;dominant-baseline:auto;baseline-shift:baseline;text-anchor:start;white-space:normal;shape-padding:0;clip-rule:nonzero;display:inline;overflow:visible;visibility:visible;opacity:1;isolation:auto;mix-blend-mode:normal;color-interpolation:sRGB;color-interpolation-filters:linearRGB;solid-color:#000000;solid-opacity:1;vector-effect:none;fill:#ffc9be;fill-opacity:1;fill-rule:evenodd;stroke:none;stroke-width:2.13543296;stroke-linecap:butt;stroke-linejoin:miter;stroke-miterlimit:4;stroke-dasharray:none;stroke-dashoffset:0;stroke-opacity:1;color-rendering:auto;image-rendering:auto;shape-rendering:auto;text-rendering:auto;enable-background:accumulate"
           d="m 297.51562,290.69531 c 4.55554,-0.0446 9.11093,0.29912 13.51368,1.05078 11.74065,2.00448 22.36289,6.89264 29.09961,14.82422 6.73671,7.93158 9.7157,18.90259 6.07421,33.58008 l -5.32226,21.44336 9.46289,-1.52734 c 1.19356,-0.19276 2.29162,-0.0709 2.8418,0.31836 0.55017,0.38922 0.9389,1.06663 0.57617,3.0039 l -1.80078,9.61914 -12.91016,-1.67578 -0.34766,0.26563 c -19.99534,15.2448 -37.4429,19.63851 -53.41601,17.27343 -15.78945,-2.33786 -30.22453,-11.41123 -44.10547,-23.48242 6.02608,-18.76178 5.96095,-27.93445 5.49805,-34.30273 -0.47098,-6.47931 -1.23435,-9.94966 4.02343,-19.31836 4.57842,-8.15815 13.732,-14.20548 24.74415,-17.67383 5.50607,-1.73417 11.46577,-2.8206 17.51757,-3.22461 1.51296,-0.101 3.03227,-0.15895 4.55078,-0.17383 z"
           transform="scale(0.26458333)"
           id="path4547"
           inkscape:connector-curvature="0" />
        <path
           style="color:#000000;font-style:normal;font-variant:normal;font-weight:normal;font-stretch:normal;font-size:medium;line-height:normal;font-family:sans-serif;font-variant-ligatures:normal;font-variant-position:normal;font-variant-caps:normal;font-variant-numeric:normal;font-variant-alternates:normal;font-feature-settings:normal;text-indent:0;text-align:start;text-decoration:none;text-decoration-line:none;text-decoration-style:solid;text-decoration-color:#000000;letter-spacing:normal;word-spacing:normal;text-transform:none;writing-mode:lr-tb;direction:ltr;text-orientation:mixed;dominant-baseline:auto;baseline-shift:baseline;text-anchor:start;white-space:normal;shape-padding:0;clip-rule:nonzero;display:inline;overflow:visible;visibility:visible;opacity:1;isolation:auto;mix-blend-mode:normal;color-interpolation:sRGB;color-interpolation-filters:linearRGB;solid-color:#000000;solid-opacity:1;vector-effect:none;fill:#ffa998;fill-opacity:1;fill-rule:evenodd;stroke:none;stroke-width:2.13543296;stroke-linecap:butt;stroke-linejoin:miter;stroke-miterlimit:4;stroke-dasharray:none;stroke-dashoffset:0;stroke-opacity:1;color-rendering:auto;image-rendering:auto;shape-rendering:auto;text-rendering:auto;enable-background:accumulate"
           d="m 244.05664,345.21094 c -0.6449,4.35177 -1.82887,9.69955 -3.90625,16.52148 l -2.48242,-10.95312 c -0.27375,-1.20857 -0.32282,-2.44851 0.0137,-3.29883 0.33649,-0.85032 0.93039,-1.47129 2.63477,-1.7207 z"
           transform="scale(0.26458333)"
           id="path4496"
           inkscape:connector-curvature="0" />
        <ellipse
           style="opacity:1;fill:#000000;fill-opacity:1;fill-rule:nonzero;stroke:none;stroke-width:0.565;stroke-linecap:round;stroke-linejoin:round;stroke-miterlimit:4;stroke-dasharray:none;stroke-dashoffset:0;stroke-opacity:1"
           id="path4502"
           cx="68.73838"
           cy="91.837227"
           rx="1.1860086"
           ry="2.1381562" />
        <ellipse
           style="opacity:1;fill:#000000;fill-opacity:1;fill-rule:nonzero;stroke:none;stroke-width:0.565;stroke-linecap:round;stroke-linejoin:round;stroke-miterlimit:4;stroke-dasharray:none;stroke-dashoffset:0;stroke-opacity:1"
           id="path4502-6"
           cx="84.958298"
           cy="92.1045"
           rx="1.1860086"
           ry="2.1381562" />
        <path
           style="color:#000000;font-style:normal;font-variant:normal;font-weight:normal;font-stretch:normal;font-size:medium;line-height:normal;font-family:sans-serif;font-variant-ligatures:normal;font-variant-position:normal;font-variant-caps:normal;font-variant-numeric:normal;font-variant-alternates:normal;font-feature-settings:normal;text-indent:0;text-align:start;text-decoration:none;text-decoration-line:none;text-decoration-style:solid;text-decoration-color:#000000;letter-spacing:normal;word-spacing:normal;text-transform:none;writing-mode:lr-tb;direction:ltr;text-orientation:mixed;dominant-baseline:auto;baseline-shift:baseline;text-anchor:start;white-space:normal;shape-padding:0;clip-rule:nonzero;display:inline;overflow:visible;visibility:visible;opacity:1;isolation:auto;mix-blend-mode:normal;color-interpolation:sRGB;color-interpolation-filters:linearRGB;solid-color:#000000;solid-opacity:1;vector-effect:none;fill:#000000;fill-opacity:1;fill-rule:evenodd;stroke:none;stroke-width:2.13543296;stroke-linecap:butt;stroke-linejoin:miter;stroke-miterlimit:4;stroke-dasharray:none;stroke-dashoffset:0;stroke-opacity:1;color-rendering:auto;image-rendering:auto;shape-rendering:auto;text-rendering:auto;enable-background:accumulate"
           d="m 273.93359,281.95312 c -0.49364,-0.004 -0.98392,0.003 -1.46875,0.0195 -11.63588,0.40421 -20.70804,6.76756 -26.23437,15.10351 -7.36845,11.11461 -8.74062,25.76277 -1.86719,34.76172 l 1.13672,1.48438 0.70117,-1.72852 c 4.37584,-10.66543 6.94955,-12.66778 14.42578,-17.53125 0.57438,2.06058 1.36419,4.21231 2.4336,6.47461 1.64803,3.48636 5.3145,5.4796 9.04297,6.41406 3.72846,0.93447 7.5659,0.8752 10.14257,-0.20703 18.87097,-7.92591 32.26339,-10.94916 40.71875,-10.40039 4.22769,0.27439 7.17675,1.42445 9.07227,3.17383 1.89552,1.74938 2.83731,4.13887 2.89453,7.27148 0.26148,14.31578 1.47089,27.98224 -2.60742,41.41992 -3.93906,3.06721 -7.78984,5.98111 -12.12695,6.53907 -1.51588,-4.7611 -5.11579,-8.34511 -9.9961,-10.55469 -5.27408,-2.38786 -11.81779,-3.4282 -18.41797,-3.35156 -6.60017,0.0767 -13.25842,1.26975 -18.75586,3.46093 -5.00765,1.99597 -8.85359,4.9401 -10.9414,8.65235 l -21.20703,-14.60938 -1.48438,6.15821 c -0.61758,2.55607 0.0899,5.41461 1.69141,8.32617 1.6015,2.91156 4.11904,5.91765 7.35156,8.83594 6.46504,5.83664 15.79028,11.3063 26.4043,14.50586 20.8091,6.27286 46.72628,3.60324 64.76172,-22.61719 l 0.42187,0.0508 4.37109,-10.55469 c -0.008,0.0143 -0.0152,0.0287 -0.0234,0.043 l 0.0586,-0.12695 -0.0352,0.084 c 13.91601,-24.13418 11.83913,-47.13202 -0.49609,-62.40039 -9.25688,-11.45805 -24.21688,-18.52071 -42.24023,-18.63281 -5.34861,-0.0333 -10.96268,0.55486 -16.78125,1.8125 l 0.0391,-0.12891 c -3.86034,-1.17109 -7.52889,-1.71977 -10.98438,-1.74805 z"
           transform="scale(0.26458333)"
           id="path4543"
           inkscape:connector-curvature="0" />
        <path
           style="color:#000000;font-style:normal;font-variant:normal;font-weight:normal;font-stretch:normal;font-size:medium;line-height:normal;font-family:sans-serif;font-variant-ligatures:normal;font-variant-position:normal;font-variant-caps:normal;font-variant-numeric:normal;font-variant-alternates:normal;font-feature-settings:normal;text-indent:0;text-align:start;text-decoration:none;text-decoration-line:none;text-decoration-style:solid;text-decoration-color:#000000;letter-spacing:normal;word-spacing:normal;text-transform:none;writing-mode:lr-tb;direction:ltr;text-orientation:mixed;dominant-baseline:auto;baseline-shift:baseline;text-anchor:start;white-space:normal;shape-padding:0;clip-rule:nonzero;display:inline;overflow:visible;visibility:visible;opacity:1;isolation:auto;mix-blend-mode:normal;color-interpolation:sRGB;color-interpolation-filters:linearRGB;solid-color:#000000;solid-opacity:1;vector-effect:none;fill:#2d2d2d;fill-opacity:1;fill-rule:evenodd;stroke:none;stroke-width:2.13543296;stroke-linecap:butt;stroke-linejoin:miter;stroke-miterlimit:4;stroke-dasharray:none;stroke-dashoffset:0;stroke-opacity:1;color-rendering:auto;image-rendering:auto;shape-rendering:auto;text-rendering:auto;enable-background:accumulate"
           d="m 273.88869,284.05859 c 2.86059,0.0341 5.89303,0.45448 9.08399,1.3125 l -1.96094,1.46485 c 25.72707,-6.24682 49.46654,0.59985 61.22656,15.15625 11.76002,14.55639 13.88729,36.46533 0.28125,60.03125 l -0.0371,0.0586 -3.63281,8.78906 c -17.58576,26.90909 -42.80829,29.45917 -63.38672,23.25586 -10.29942,-3.10473 -19.3959,-8.45342 -25.59375,-14.04883 -3.09892,-2.7977 -5.46502,-5.6575 -6.9082,-8.28124 -1.44319,-2.62376 -1.93276,-4.96756 -1.49219,-6.79102 l 0.75391,-3.13867 20.49804,14.12109 0.51758,-1.1875 c 1.5021,-3.46799 5.3931,-6.44194 10.58594,-8.51172 5.19284,-2.06977 11.62531,-3.24063 17.98242,-3.31445 6.35711,-0.0738 12.64019,0.95191 17.51758,3.16016 4.87738,2.20825 8.29554,5.51898 9.34375,10.12109 l 0.20703,0.89258 0.91602,-0.0664 c 24.6642,-3.92385 17.63616,-32.70565 17.28125,-50.33008 -0.065,-3.55713 -1.22458,-6.62551 -3.58789,-8.80664 -2.36334,-2.18113 -5.83144,-3.43337 -10.37891,-3.72851 -9.09494,-0.59029 -22.66325,2.57497 -41.68555,10.56445 -1.84295,0.77405 -5.45466,0.93385 -8.79883,0.0957 -3.34416,-0.83814 -6.37727,-2.61219 -7.62695,-5.25586 -3.09739,-6.55244 -3.86677,-11.98382 -2.95898,-16.43945 0.90779,-4.45564 3.47913,-8.0038 7.35156,-10.83594 -4.40402,-0.20724 -9.0745,8.74775 -9.44141,10.41602 -0.56221,2.75946 -0.51721,5.79905 0.15235,9.10547 -7.38531,4.80797 -10.74861,7.9702 -14.80469,17.04101 -4.94093,-8.12768 -3.82583,-20.78145 2.7168,-30.65039 5.43234,-8.19418 14.25511,-14.33769 25.8789,-14.19922 z"
           transform="scale(0.26458333)"
           id="path4519"
           inkscape:connector-curvature="0" />
        <path
           style="fill:#ff91cd;fill-opacity:1;fill-rule:evenodd;stroke:none;stroke-width:0.565;stroke-linecap:butt;stroke-linejoin:miter;stroke-miterlimit:4;stroke-dasharray:none;stroke-opacity:1"
           d="m 72.22959,99.421002 c 3.289992,-1.880161 6.777252,-2.083537 10.423509,-0.935445 0,0 -0.671555,3.605943 -4.610399,3.942223 -3.848234,0.32854 -5.81311,-3.006778 -5.81311,-3.006778 z"
           id="path4498"
           inkscape:connector-curvature="0"
           sodipodi:nodetypes="ccsc" />
      </g>
    </g>
    <g
       id="g4659"
       transform="translate(-72.798047,-65.000216)"
       inkscape:export-xdpi="31.985592"
       inkscape:export-ydpi="31.985592">
      <path
         inkscape:connector-curvature="0"
         id="path4549-3"
         d="m 136.36949,75.560647 c -0.41256,0.004 -0.82511,0.02011 -1.2361,0.04754 -1.64399,0.109736 -3.2642,0.407035 -4.76767,0.880565 -3.00694,0.947055 -5.55927,2.604207 -6.86883,4.937683 -1.43451,2.556108 -1.2597,3.739957 -1.13688,5.429642 0.0593,0.815753 0.10308,1.773282 -0.0527,3.11454 l -1.14825,0.168465 c -0.59287,0.08676 -0.98322,0.407676 -1.1405,0.80512 -0.15729,0.397441 -0.11523,0.827987 -0.0295,1.206642 l 0.87127,3.840594 -0.0336,0.104902 0.13901,0.122992 c 3.75269,3.285593 7.70323,5.794048 12.0897,6.443538 4.35703,0.64512 9.12123,-0.57693 14.45286,-4.609542 l 3.72897,0.482658 0.57568,-3.068547 c 0.11844,-0.632561 -0.0373,-1.116973 -0.38241,-1.361157 -0.34516,-0.244187 -0.77591,-0.243131 -1.16788,-0.179835 l -1.6583,0.267685 1.20096,-4.844148 c 0.99711,-4.019005 0.17294,-7.154656 -1.72444,-9.388576 -1.89739,-2.233916 -4.83469,-3.566511 -8.03517,-4.112926 -1.20018,-0.204907 -2.4386,-0.299736 -3.67626,-0.287838 z"
         style="color:#000000;font-style:normal;font-variant:normal;font-weight:normal;font-stretch:normal;font-size:medium;line-height:normal;font-family:sans-serif;font-variant-ligatures:normal;font-variant-position:normal;font-variant-caps:normal;font-variant-numeric:normal;font-variant-alternates:normal;font-feature-settings:normal;text-indent:0;text-align:start;text-decoration:none;text-decoration-line:none;text-decoration-style:solid;text-decoration-color:#000000;letter-spacing:normal;word-spacing:normal;text-transform:none;writing-mode:lr-tb;direction:ltr;text-orientation:mixed;dominant-baseline:auto;baseline-shift:baseline;text-anchor:start;white-space:normal;shape-padding:0;clip-rule:nonzero;display:inline;overflow:visible;visibility:visible;opacity:1;isolation:auto;mix-blend-mode:normal;color-interpolation:sRGB;color-interpolation-filters:linearRGB;solid-color:#000000;solid-opacity:1;vector-effect:none;fill:#000000;fill-opacity:1;fill-rule:evenodd;stroke:none;stroke-width:0.56499994;stroke-linecap:butt;stroke-linejoin:miter;stroke-miterlimit:4;stroke-dasharray:none;stroke-dashoffset:0;stroke-opacity:1;color-rendering:auto;image-rendering:auto;shape-rendering:auto;text-rendering:auto;enable-background:accumulate" />
      <path
         inkscape:connector-curvature="0"
         id="path4547-1"
         d="m 136.37465,76.12857 c 1.20532,-0.0118 2.4106,0.07914 3.5755,0.278019 3.10638,0.530352 5.91685,1.823677 7.69927,3.922241 1.78242,2.098564 2.57061,5.001311 1.60713,8.88473 l -1.40818,5.673555 2.50373,-0.404108 c 0.31579,-0.051 0.60632,-0.01876 0.75189,0.08423 0.14556,0.102981 0.24842,0.282213 0.15244,0.794782 l -0.47645,2.545064 -3.41582,-0.443383 -0.092,0.07028 c -5.29043,4.03352 -9.90677,5.19603 -14.13299,4.57026 -4.17762,-0.61855 -7.9969,-3.019219 -11.66957,-6.213055 1.5944,-4.964054 1.57717,-7.39099 1.45469,-9.075931 -0.12461,-1.714317 -0.32658,-2.632514 1.06454,-5.111316 1.21137,-2.15851 3.63325,-3.758533 6.54689,-4.6762 1.45681,-0.458833 3.03365,-0.746284 4.63485,-0.853179 0.40031,-0.02672 0.80229,-0.04205 1.20406,-0.04599 z"
         style="color:#000000;font-style:normal;font-variant:normal;font-weight:normal;font-stretch:normal;font-size:medium;line-height:normal;font-family:sans-serif;font-variant-ligatures:normal;font-variant-position:normal;font-variant-caps:normal;font-variant-numeric:normal;font-variant-alternates:normal;font-feature-settings:normal;text-indent:0;text-align:start;text-decoration:none;text-decoration-line:none;text-decoration-style:solid;text-decoration-color:#000000;letter-spacing:normal;word-spacing:normal;text-transform:none;writing-mode:lr-tb;direction:ltr;text-orientation:mixed;dominant-baseline:auto;baseline-shift:baseline;text-anchor:start;white-space:normal;shape-padding:0;clip-rule:nonzero;display:inline;overflow:visible;visibility:visible;opacity:1;isolation:auto;mix-blend-mode:normal;color-interpolation:sRGB;color-interpolation-filters:linearRGB;solid-color:#000000;solid-opacity:1;vector-effect:none;fill:#ffc9be;fill-opacity:1;fill-rule:evenodd;stroke:none;stroke-width:0.56499994;stroke-linecap:butt;stroke-linejoin:miter;stroke-miterlimit:4;stroke-dasharray:none;stroke-dashoffset:0;stroke-opacity:1;color-rendering:auto;image-rendering:auto;shape-rendering:auto;text-rendering:auto;enable-background:accumulate" />
      <path
         inkscape:connector-curvature="0"
         id="path4496-4"
         d="m 122.2303,90.552497 c -0.17063,1.151406 -0.48389,2.566339 -1.03353,4.371308 l -0.65681,-2.898013 c -0.0724,-0.319767 -0.0854,-0.647835 0.004,-0.872815 0.089,-0.224981 0.24616,-0.389279 0.69711,-0.455269 z"
         style="color:#000000;font-style:normal;font-variant:normal;font-weight:normal;font-stretch:normal;font-size:medium;line-height:normal;font-family:sans-serif;font-variant-ligatures:normal;font-variant-position:normal;font-variant-caps:normal;font-variant-numeric:normal;font-variant-alternates:normal;font-feature-settings:normal;text-indent:0;text-align:start;text-decoration:none;text-decoration-line:none;text-decoration-style:solid;text-decoration-color:#000000;letter-spacing:normal;word-spacing:normal;text-transform:none;writing-mode:lr-tb;direction:ltr;text-orientation:mixed;dominant-baseline:auto;baseline-shift:baseline;text-anchor:start;white-space:normal;shape-padding:0;clip-rule:nonzero;display:inline;overflow:visible;visibility:visible;opacity:1;isolation:auto;mix-blend-mode:normal;color-interpolation:sRGB;color-interpolation-filters:linearRGB;solid-color:#000000;solid-opacity:1;vector-effect:none;fill:#ffa998;fill-opacity:1;fill-rule:evenodd;stroke:none;stroke-width:0.56499994;stroke-linecap:butt;stroke-linejoin:miter;stroke-miterlimit:4;stroke-dasharray:none;stroke-dashoffset:0;stroke-opacity:1;color-rendering:auto;image-rendering:auto;shape-rendering:auto;text-rendering:auto;enable-background:accumulate" />
      <ellipse
         ry="2.1381562"
         rx="1.1860086"
         cy="91.052666"
         cx="126.39536"
         id="path4502-7"
         style="opacity:1;fill:#000000;fill-opacity:1;fill-rule:nonzero;stroke:none;stroke-width:0.565;stroke-linecap:round;stroke-linejoin:round;stroke-miterlimit:4;stroke-dasharray:none;stroke-dashoffset:0;stroke-opacity:1" />
      <ellipse
         ry="2.1381562"
         rx="1.1860086"
         cy="91.319939"
         cx="142.61528"
         id="path4502-6-6"
         style="opacity:1;fill:#000000;fill-opacity:1;fill-rule:nonzero;stroke:none;stroke-width:0.565;stroke-linecap:round;stroke-linejoin:round;stroke-miterlimit:4;stroke-dasharray:none;stroke-dashoffset:0;stroke-opacity:1" />
      <path
         sodipodi:nodetypes="ccsc"
         inkscape:connector-curvature="0"
         id="path4498-1"
         d="m 129.88657,98.636439 c 3.28999,-1.880161 6.77725,-2.083537 10.42351,-0.935445 0,0 -0.67156,3.605946 -4.6104,3.942226 -3.84823,0.32854 -5.81311,-3.006781 -5.81311,-3.006781 z"
         style="fill:#ff91cd;fill-opacity:1;fill-rule:evenodd;stroke:none;stroke-width:0.565;stroke-linecap:butt;stroke-linejoin:miter;stroke-miterlimit:4;stroke-dasharray:none;stroke-opacity:1" />
      <path
         id="path4646"
         d="m 131.8371,65.018003 -0.34412,0.702373 c -0.53785,1.119203 -0.84236,1.923518 -0.88103,2.602736 l -1.77917,-0.501611 -0.0276,-0.01074 c -2.65445,-0.402634 -4.82378,-0.45977 -6.89464,0.301445 -2.07083,0.761162 -3.9699,2.350156 -6.01031,4.990326 l -1.19698,1.548579 1.66484,-0.793466 c 1.70602,-0.815364 3.17094,-1.225353 4.32337,-1.126676 -0.78972,0.307974 -1.49338,0.638982 -2.078,1.032586 -0.97657,0.657436 -1.69391,1.458282 -2.17191,2.346839 -0.95613,1.777122 -1.02902,3.796023 -1.17765,6.164344 l -0.17454,2.753759 1.1677,-2.790914 c 0.61691,-1.472688 1.35892,-2.578775 2.01006,-3.38242 0.42247,1.162311 0.32508,1.807438 0.12594,2.630303 -0.23983,0.991301 -0.69213,2.298017 -0.50652,4.554041 l 0.12705,1.538389 0.83904,-1.585735 c 1.06126,-2.013041 1.64861,-3.056142 2.32989,-3.776754 0.29906,-0.316406 0.64692,-0.589734 1.08429,-0.876169 1.18305,0.380885 2.02152,0.92894 2.28515,1.629483 0.26476,0.703367 0.0789,1.623194 -1.07877,3.162479 l -0.80425,1.082325 1.16715,-0.28826 c 2.5727,-0.661616 3.81973,-0.714984 5.005,-1.28309 0.59266,-0.284099 1.13254,-0.71684 1.68969,-1.339422 0.32202,-0.360005 0.6666,-0.811574 1.04177,-1.329837 0.17576,0.608048 0.52907,1.202548 1.05502,1.913548 l 0.22481,0.304442 0.39605,-0.265488 c 2.4451,-1.611288 4.15969,-2.889563 6.42127,-3.104946 -0.18791,0.35805 -0.38018,0.828087 -0.59104,1.025394 -0.35837,0.3352 -0.92568,0.626605 -1.93328,1.067944 l -1.74604,0.762301 1.59524,0.27208 c 1.33363,0.231458 2.28001,0.514854 3.34459,0.385945 0.91788,-0.111103 1.87611,-0.563034 3.02752,-1.510819 3.75458,2.01856 5.32184,7.0778 3.61745,11.492073 l -0.41538,1.078131 1.03348,-0.324219 c 1.42447,-0.444578 3.23469,-1.722507 4.31067,-4.156108 1.07599,-2.4336 1.38107,-5.983419 -0.12096,-10.886189 -1.06456,-3.474781 -2.17869,-7.505266 -0.13368,-13.046644 l 0.38003,-1.030188 -0.98929,0.280469 c -2.43147,0.689805 -3.8433,2.203383 -5.51207,3.768967 -0.49063,-0.828527 -1.00138,-1.534732 -1.59027,-2.142481 -0.86575,-0.893528 -1.88637,-1.565572 -3.23521,-2.111914 -1.34878,-0.54648 -3.02849,-0.965368 -5.18507,-1.368188 l -1.7847,-0.345194 2.56851,2.94913 c -1.42357,-0.63249 -2.62424,-1.643951 -3.97594,-2.614126 z"
         style="color:#000000;font-style:normal;font-variant:normal;font-weight:normal;font-stretch:normal;font-size:xx-small;line-height:normal;font-family:sans-serif;-inkscape-font-specification:sans-serif;text-indent:0;text-align:start;text-decoration:none;text-decoration-line:none;letter-spacing:normal;word-spacing:normal;text-transform:none;writing-mode:lr-tb;direction:ltr;baseline-shift:baseline;text-anchor:start;clip-rule:nonzero;display:inline;overflow:visible;visibility:visible;color-interpolation:sRGB;color-interpolation-filters:linearRGB;fill:#07060a;fill-opacity:0.99607843;stroke:none;stroke-width:1.03454864;marker:none;color-rendering:auto;image-rendering:auto;shape-rendering:auto;text-rendering:auto;enable-background:accumulate"
         inkscape:connector-curvature="0" />
      <path
         id="path1801"
         d="m 132.09506,66.705617 c 1.69177,1.264539 3.32554,2.652536 5.78383,2.94793 l 1.65379,0.195969 -2.5188,-2.890398 c 2.8414,0.679216 4.80941,1.440449 6.09814,2.770538 1.595,1.646208 2.64598,4.175803 4.48301,8.389527 -0.31224,-3.941794 -0.72831,-4.612461 -1.51845,-6.139175 1.47878,-1.35905 2.69286,-2.454511 4.31067,-3.179258 -1.5509,5.223386 -0.56712,9.338589 0.42587,12.579795 1.44224,4.707569 1.1098,7.922343 0.16903,10.05017 -0.727,1.644276 -1.80441,2.512805 -2.79774,3.055207 1.77717,-8.508897 -4.73959,-11.864535 -4.73959,-11.864535 0,0 -2.11475,1.515741 -2.91788,1.613 -0.48021,0.05812 -1.04432,-0.01752 -1.67754,-0.125854 0.2777,-0.168994 0.55414,-0.334117 0.78768,-0.552549 0.60445,-0.565274 0.98491,-1.276484 1.39141,-2.307883 l 0.24856,-0.620271 -0.57611,-0.0018 c -2.84094,-0.04994 -4.9328,1.499764 -7.37797,3.13611 -0.84305,-1.200912 -1.12714,-2.042906 0.17565,-3.694054 -1.94431,0.745041 -2.2361,2.049276 -3.63071,3.623338 -0.46318,0.51749 -0.79721,0.763989 -1.21631,0.964863 -0.69892,0.334976 -1.90732,0.537671 -3.7561,0.966064 0.75485,-1.302742 0.96399,-2.418933 0.64406,-3.269153 -0.31465,-0.836031 -1.27783,-1.420689 -2.19179,-1.81826 0.29574,-0.154528 1.25663,-1.468872 1.25663,-1.468872 0,0 -3.16236,1.542023 -4.05769,2.488872 -0.55813,0.590214 -1.05535,1.36168 -1.57314,2.277917 0.0896,-0.921343 0.25869,-1.685921 0.42643,-2.379198 0.28012,-2.204558 -0.34642,-2.745196 0.28668,-4.647532 0,0 -1.73643,0.699751 -3.17998,2.98449 0.13928,-1.315824 0.33982,-2.485178 0.81253,-3.363841 0.36398,-0.675592 0.8643,-1.25194 1.66097,-1.788297 0.79675,-0.536441 1.90377,-1.025422 3.40921,-1.436509 l 1.26768,-0.349389 -0.88544,-0.656226 c -1.16799,-0.860135 -2.83294,-0.741516 -4.68849,-0.106077 1.33042,-1.410971 2.5896,-2.453109 3.90302,-2.935944 1.77167,-0.651218 3.76981,-0.641334 6.34118,-0.255299 1.62087,0.154631 2.76984,1.037467 4.16816,1.565359 -0.57946,-1.399326 -1.07018,-2.158399 -0.40046,-3.758776 z"
         style="color:#000000;font-style:normal;font-variant:normal;font-weight:normal;font-stretch:normal;font-size:xx-small;line-height:normal;font-family:sans-serif;-inkscape-font-specification:sans-serif;text-indent:0;text-align:start;text-decoration:none;text-decoration-line:none;letter-spacing:normal;word-spacing:normal;text-transform:none;writing-mode:lr-tb;direction:ltr;baseline-shift:baseline;text-anchor:start;clip-rule:nonzero;display:inline;overflow:visible;visibility:visible;color-interpolation:sRGB;color-interpolation-filters:linearRGB;fill:#2d2d2d;fill-opacity:1;stroke:none;stroke-width:1.03454864;marker:none;color-rendering:auto;image-rendering:auto;shape-rendering:auto;text-rendering:auto;enable-background:accumulate"
         inkscape:connector-curvature="0" />
      <circle
         r="0.082682289"
         cy="98.635735"
         cx="128.61821"
         id="path4648"
         style="opacity:1;fill:#2d2d2d;fill-opacity:1;fill-rule:nonzero;stroke:none;stroke-width:0.96499997;stroke-linecap:round;stroke-linejoin:round;stroke-miterlimit:4;stroke-dasharray:none;stroke-dashoffset:0;stroke-opacity:1" />
    </g>
  </g>
</svg>
